<svg xmlns="http://www.w3.org/2000/svg" data-name="Layer 1" viewBox="0 0 53 53" id="analytics"><path d="M49.5 44.74h-3.12v-27a1 1 0 0 0-1-1h-6.05a1 1 0 0 0-1 1v27H34V23.3a1 1 0 0 0-1-1h-6a1 1 0 0 0-1 1v21.44h-4.3V30.86a1 1 0 0 0-1-1h-6a1 1 0 0 0-1 1v13.88h-3.29V11.07a1 1 0 0 0-2 0v34.67a1 1 0 0 0 1 1H49.39a1 1 0 0 0 0-2zm-9.17-26h4.05v26h-4.05zM28 24.3h4v20.44h-4zm-12.35 7.56h4v12.88h-4zM3.5 14.89h1.8a1 1 0 1 0 0-2H3.5a1 1 0 0 0 0 2zm0 5.99h1.8a1 1 0 1 0 0-2H3.5a1 1 0 0 0 0 2zm0 5.98h1.8a1 1 0 1 0 0-2H3.5a1 1 0 0 0 0 2zm0 5.99h1.8a1 1 0 0 0 0-2H3.5a1 1 0 0 0 0 2zm0 5.99h1.8a1 1 0 0 0 0-2H3.5a1 1 0 0 0 0 2zm0 5.99h1.8a1 1 0 0 0 0-2H3.5a1 1 0 0 0 0 2z"></path><path d="M15.12 21.88a1 1 0 0 0-.79 1.18 1 1 0 0 0 1 .81h.19c.63-.13 14.58-3 24.32-13.52l-.07.93a1 1 0 0 0 .93 1.06h.07a1 1 0 0 0 1-.94L42 7.31a1 1 0 0 0-1.16-1.06l-4 .66a1 1 0 1 0 .32 2l1.44-.23C29.31 19 15.27 21.86 15.12 21.88Z"></path></svg>