<?xml version="1.0" standalone="no"?>
<!DOCTYPE svg PUBLIC "-//W3C//DTD SVG 20010904//EN"
 "http://www.w3.org/TR/2001/REC-SVG-20010904/DTD/svg10.dtd">
<svg version="1.0" xmlns="http://www.w3.org/2000/svg"
 width="512.000000pt" height="512.000000pt" viewBox="0 0 512.000000 512.000000"
 preserveAspectRatio="xMidYMid meet">

<g transform="translate(0.000000,512.000000) scale(0.100000,-0.100000)"
fill="#000000" stroke="none">
<path d="M840 5098 c-24 -13 -58 -40 -74 -61 -29 -37 -31 -44 -34 -142 l-4
-103 -66 -4 c-37 -2 -83 -12 -103 -22 -110 -53 -164 -179 -125 -289 35 -96
107 -147 221 -156 l70 -6 3 -161 2 -162 -73 -4 c-61 -3 -83 -9 -123 -33 -126
-78 -150 -254 -48 -359 50 -52 89 -69 172 -74 l72 -5 0 -157 0 -158 -67 -7
c-115 -12 -179 -52 -219 -140 -29 -62 -30 -125 -3 -185 42 -92 110 -138 220
-147 l69 -6 0 -157 0 -157 -69 -6 c-110 -9 -178 -55 -220 -147 -51 -113 7
-257 124 -306 17 -6 60 -15 98 -19 l67 -7 0 -158 0 -157 -72 -5 c-83 -5 -122
-22 -172 -74 -102 -105 -78 -281 48 -359 40 -24 62 -30 123 -33 l73 -4 -2
-162 -3 -161 -70 -6 c-114 -9 -186 -60 -221 -156 -39 -110 15 -236 125 -289
20 -10 66 -20 103 -22 l66 -4 4 -103 c3 -98 5 -105 34 -142 16 -21 50 -48 74
-60 l44 -23 1837 0 1836 0 44 23 c24 13 58 43 74 66 l30 43 0 2428 0 2428 -30
43 c-16 23 -50 53 -74 66 l-44 23 -1836 0 -1837 0 -44 -22z m3704 -150 c14
-20 16 -263 16 -2388 0 -2125 -2 -2368 -16 -2388 l-15 -22 -1805 0 c-1225 0
-1812 3 -1825 10 -19 11 -19 48 -19 2400 0 2265 1 2390 18 2399 11 7 615 10
1824 11 l1807 0 15 -22z m-3814 -393 l0 -85 -49 0 c-80 0 -128 57 -99 118 17
34 52 52 106 52 l42 0 0 -85z m0 -801 l0 -86 -56 4 c-69 6 -98 31 -98 84 0 53
39 84 105 84 l49 0 0 -86z m-2 -796 c-3 -80 -4 -83 -28 -86 -77 -11 -142 48
-121 110 15 44 39 57 99 58 l53 0 -3 -82z m0 -795 l3 -83 -53 0 c-59 1 -82 13
-98 55 -23 61 32 118 110 112 l35 -2 3 -82z m2 -798 l0 -85 -49 0 c-80 0 -128
57 -99 118 17 34 52 52 106 52 l42 0 0 -85z m0 -801 l0 -86 -56 4 c-69 6 -98
31 -98 84 0 53 39 84 105 84 l49 0 0 -86z"/>
<path d="M2561 4353 c-18 -9 -44 -34 -58 -55 -27 -40 -32 -95 -18 -196 l6 -47
-83 -23 c-291 -79 -557 -297 -701 -571 -56 -107 -101 -248 -117 -367 l-12 -91
-58 -6 c-110 -10 -130 -40 -130 -202 l0 -117 34 -34 34 -34 1251 0 c923 0
1257 3 1275 12 47 21 60 54 64 163 6 157 -22 202 -136 214 -55 6 -57 7 -59 36
-26 322 -203 633 -470 825 -104 75 -244 143 -353 172 l-79 21 2 108 c2 119 -6
141 -73 187 -30 20 -45 22 -159 22 -97 0 -134 -4 -160 -17z m243 -200 c-4 -38
-8 -70 -10 -72 -2 -2 -37 -4 -78 -5 l-74 -1 -6 35 c-3 19 -6 52 -6 73 l0 37
90 0 91 0 -7 -67z m86 -244 c135 -21 297 -92 416 -180 210 -155 365 -419 390
-666 l7 -63 -755 0 c-749 0 -756 0 -782 -21 -30 -23 -35 -72 -12 -105 14 -18
38 -19 878 -24 l863 -5 3 -42 3 -43 -1180 0 -1181 0 0 45 0 45 175 0 c162 0
177 2 195 20 30 30 27 83 -6 109 -22 17 -41 21 -101 21 l-74 0 7 53 c54 422
366 761 785 852 77 16 279 19 369 4z"/>
<path d="M1433 2050 c-44 -18 -57 -86 -23 -120 20 -20 33 -20 1309 -20 l1290
0 20 26 c12 15 21 33 21 40 0 26 -23 62 -47 73 -30 14 -2536 15 -2570 1z"/>
<path d="M1496 1714 c-14 -13 -16 -56 -16 -313 0 -218 3 -300 12 -309 17 -17
74 -15 92 4 13 13 16 46 16 207 l0 192 53 -94 c81 -146 92 -146 174 0 l53 94
0 -188 c0 -110 4 -196 10 -208 12 -22 78 -27 98 -7 9 9 12 91 12 309 0 331 0
329 -66 329 -46 0 -67 -23 -134 -147 -30 -57 -58 -103 -61 -103 -3 0 -32 48
-64 107 -33 59 -67 115 -77 125 -22 22 -81 24 -102 2z"/>
<path d="M2223 1723 c-10 -4 -13 -77 -13 -318 0 -276 2 -314 16 -319 9 -3 96
-6 195 -6 l179 0 11 26 c7 20 6 32 -6 50 -15 23 -20 24 -145 24 l-130 0 0 90
0 90 75 0 c70 0 76 2 86 24 8 17 8 29 0 45 -10 19 -20 21 -86 21 l-75 0 0 90
0 90 130 0 c125 0 130 1 145 24 12 18 13 30 6 50 l-11 26 -182 -1 c-101 0
-189 -3 -195 -6z"/>
<path d="M2789 1703 c-6 -16 -9 -136 -7 -315 3 -317 1 -308 64 -308 17 0 36 6
43 13 6 9 12 82 13 195 l3 181 94 -177 c52 -97 101 -185 109 -194 18 -21 82
-24 100 -6 17 17 17 609 0 626 -20 20 -86 15 -98 -7 -6 -11 -10 -93 -10 -193
l0 -173 -91 175 c-50 96 -97 183 -106 192 -11 12 -31 18 -60 18 -38 0 -45 -3
-54 -27z"/>
<path d="M3443 1723 c-10 -3 -13 -64 -13 -256 0 -224 3 -257 19 -293 36 -80
138 -119 249 -96 86 18 135 62 152 138 15 61 13 487 -2 502 -7 7 -28 12 -48
12 -20 0 -41 -5 -48 -12 -9 -9 -12 -77 -12 -245 0 -260 -3 -275 -65 -292 -44
-12 -79 -4 -107 26 -23 24 -23 29 -26 266 -3 170 -7 244 -15 249 -13 9 -65 9
-84 1z"/>
<path d="M1440 893 c-53 -20 -67 -83 -27 -121 l23 -22 888 0 c606 0 894 3 907
11 48 25 44 105 -7 128 -18 8 -269 11 -897 10 -480 0 -879 -3 -887 -6z"/>
<path d="M3513 890 c-45 -18 -55 -72 -22 -114 l20 -26 248 0 c224 0 249 2 263
18 37 41 28 100 -19 121 -29 13 -457 14 -490 1z"/>
</g>
</svg>