<?xml version="1.0" standalone="no"?>
<!DOCTYPE svg PUBLIC "-//W3C//DTD SVG 20010904//EN"
 "http://www.w3.org/TR/2001/REC-SVG-20010904/DTD/svg10.dtd">
<svg version="1.0" xmlns="http://www.w3.org/2000/svg"
 width="246.000000pt" height="205.000000pt" viewBox="0 0 246.000000 205.000000"
 preserveAspectRatio="xMidYMid meet">

<g transform="translate(0.000000,205.000000) scale(0.100000,-0.100000)"
fill="#000000" stroke="none">
<path d="M1183 1967 c-24 -36 -52 -86 -63 -112 l-20 -48 62 -66 c34 -36 63
-68 65 -70 1 -2 15 12 30 30 15 19 45 50 65 69 l38 35 -40 80 c-22 44 -53 95
-68 113 l-27 33 -42 -64z"/>
<path d="M814 1875 c-6 -23 -3 -71 13 -182 4 -36 9 -43 27 -43 21 0 114 -22
149 -35 13 -6 17 -2 17 16 0 13 7 53 15 89 13 63 13 66 -8 84 -22 19 -144 79
-184 91 -18 5 -24 1 -29 -20z"/>
<path d="M1566 1875 c-32 -13 -80 -37 -105 -53 -50 -31 -48 -22 -35 -145 6
-63 8 -67 28 -60 11 4 55 14 96 23 l75 16 7 40 c9 53 10 204 1 204 -5 0 -35
-11 -67 -25z"/>
<path d="M618 1598 c-27 -6 -48 -16 -48 -23 0 -26 82 -134 149 -198 128 -120
266 -168 387 -132 l59 18 -77 24 c-105 32 -181 101 -238 215 -22 44 -40 87
-40 94 0 17 -116 18 -192 2z"/>
<path d="M1650 1599 c0 -7 -15 -44 -34 -83 -62 -129 -146 -202 -269 -236 l-60
-17 60 -16 c74 -21 105 -21 174 -1 119 35 243 132 324 254 25 37 45 72 45 77
0 14 -102 33 -177 33 -41 0 -63 -4 -63 -11z"/>
<path d="M437 1347 c4 -7 28 -41 51 -74 l44 -61 76 -7 c166 -16 331 -84 467
-193 l70 -57 -38 47 c-109 134 -293 248 -509 316 -123 39 -173 48 -161 29z"/>
<path d="M1913 1335 c-234 -62 -458 -198 -575 -348 l-32 -42 44 40 c138 125
314 201 510 221 42 4 69 12 77 23 6 9 30 42 53 74 23 31 35 57 28 57 -7 -1
-54 -12 -105 -25z"/>
<path d="M396 1104 c46 -52 62 -64 79 -60 56 14 198 18 280 7 101 -14 244 -58
323 -101 28 -15 52 -26 52 -24 0 10 -130 99 -183 125 -143 73 -344 119 -515
119 l-94 0 58 -66z"/>
<path d="M1834 1154 c-191 -32 -372 -112 -499 -220 -25 -21 -20 -20 35 10 162
87 376 130 545 108 l90 -11 43 47 c76 84 77 82 -35 81 -54 -1 -134 -7 -179
-15z"/>
<path d="M1700 1009 c-133 -15 -330 -87 -436 -158 l-45 -31 -72 40 c-94 51
-192 91 -297 120 -71 20 -107 24 -220 24 -88 -1 -150 -6 -178 -15 -43 -14 -42
-14 75 -15 172 -2 313 -38 462 -120 62 -34 205 -136 216 -155 3 -4 44 20 90
56 108 82 263 159 390 191 81 21 126 27 232 28 73 0 133 2 133 3 0 1 -33 8
-72 17 -100 21 -189 26 -278 15z"/>
<path d="M902 643 c-4 -10 -5 -38 -1 -63 l6 -45 1 43 c2 41 3 42 37 42 32 0
34 -2 31 -29 -2 -16 1 -35 5 -43 6 -8 9 3 9 30 0 39 2 42 28 41 16 -1 20 -3
10 -6 -20 -5 -26 -63 -7 -63 5 0 8 4 5 9 -4 5 0 12 6 14 10 4 10 6 1 6 -18 1
-16 21 1 21 8 0 17 6 20 13 3 6 5 -5 4 -25 -2 -20 1 -40 5 -44 4 -4 7 11 7 34
0 30 4 42 14 42 10 0 16 -14 18 -42 l3 -43 5 48 5 47 -65 0 c-41 1 -72 6 -84
15 -27 20 -53 19 -64 -2z m58 -3 c11 -7 7 -10 -18 -10 -20 0 -31 4 -27 10 8
13 26 13 45 0z"/>
<path d="M1300 640 c-12 -22 -11 -23 42 -20 36 1 38 0 34 -28 -2 -17 1 -36 5
-44 6 -8 9 2 9 29 0 40 1 41 34 41 35 0 35 0 32 -44 -1 -24 2 -44 7 -44 5 0 4
-7 -3 -15 -11 -13 -10 -14 3 -9 12 4 14 16 10 59 l-6 54 72 0 c39 0 71 -4 71
-9 0 -6 -11 -10 -25 -10 -20 0 -25 -5 -25 -24 0 -14 4 -27 9 -30 4 -3 6 6 3
19 -3 20 0 25 16 25 11 0 23 -8 25 -17 2 -11 3 -9 2 4 -3 31 10 47 31 39 18
-7 18 -8 2 -20 -13 -10 -15 -15 -6 -24 14 -14 48 -16 48 -3 0 5 -9 7 -20 4
-21 -5 -28 11 -10 22 6 4 8 11 4 16 -3 6 0 10 7 8 36 -4 40 2 16 21 -14 11
-31 20 -39 19 -7 0 -2 -6 12 -12 21 -10 0 -12 -123 -15 -120 -2 -152 0 -170
13 -29 21 -54 19 -67 -5z m60 0 c11 -7 7 -10 -18 -10 -20 0 -31 4 -27 10 8 13
26 13 45 0z"/>
<path d="M663 585 c0 -27 2 -38 4 -22 2 15 2 37 0 50 -2 12 -4 0 -4 -28z"/>
<path d="M693 585 c0 -27 2 -38 4 -22 2 15 2 37 0 50 -2 12 -4 0 -4 -28z"/>
<path d="M748 623 c15 -3 22 -10 19 -21 -2 -9 -9 -16 -16 -14 -15 3 2 -33 22
-44 8 -5 7 -2 -2 9 -8 10 -12 19 -9 22 9 9 47 -8 51 -24 3 -9 5 3 6 27 0 23 5
42 10 42 6 0 11 -19 13 -42 l3 -43 5 48 5 47 -65 -1 c-36 -1 -55 -4 -42 -6z
m60 -20 c-5 -25 -28 -28 -28 -4 0 12 6 21 16 21 9 0 14 -7 12 -17z"/>
<path d="M1163 623 c20 -5 22 -14 6 -30 -15 -15 -3 -33 21 -33 10 0 21 -6 23
-12 3 -7 6 6 6 30 1 23 5 42 10 42 6 0 11 -19 13 -42 l3 -43 5 48 5 47 -55 -1
c-30 -1 -47 -3 -37 -6z m47 -28 c0 -18 -5 -25 -20 -25 -11 0 -20 5 -20 10 0 6
5 10 10 10 6 0 10 7 10 15 0 8 5 15 10 15 6 0 10 -11 10 -25z"/>
<path d="M1763 585 c0 -27 2 -38 4 -22 2 15 2 37 0 50 -2 12 -4 0 -4 -28z"/>
<path d="M1793 585 c0 -27 2 -38 4 -22 2 15 2 37 0 50 -2 12 -4 0 -4 -28z"/>
<path d="M943 603 c-16 -6 -17 -29 -1 -39 7 -4 8 -3 4 5 -4 6 -2 18 4 26 13
16 12 16 -7 8z"/>
<path d="M1343 603 c-16 -6 -17 -29 -1 -39 7 -4 8 -3 4 5 -4 6 -2 18 4 26 13
16 12 16 -7 8z"/>
<path d="M1485 590 c-3 -5 -3 -14 0 -20 10 -16 42 -12 49 6 8 21 8 24 -4 24
-5 0 -9 -5 -7 -12 1 -6 -7 -14 -17 -16 -14 -3 -17 0 -13 12 7 18 2 22 -8 6z"/>
<path d="M1410 574 c0 -8 5 -12 10 -9 6 3 10 10 10 16 0 5 -4 9 -10 9 -5 0
-10 -7 -10 -16z"/>
<path d="M836 364 c18 -15 18 -15 0 -10 -16 6 -17 4 -6 -9 11 -13 7 -15 -27
-15 -38 0 -40 -2 -35 -25 2 -14 9 -28 14 -31 5 -3 4 -12 -3 -20 -8 -9 -8 -14
-1 -14 6 0 16 8 21 18 10 16 10 16 11 0 0 -10 5 -18 10 -18 6 0 10 18 10 40 0
22 5 40 10 40 6 0 10 -18 10 -40 0 -22 5 -40 10 -40 6 0 10 18 10 40 0 37 2
40 28 39 17 -1 21 -3 9 -6 -14 -4 -17 -13 -15 -36 3 -28 7 -32 36 -35 31 -3
32 -2 32 37 0 58 27 57 33 -1 l4 -43 1 43 c2 53 22 56 22 2 0 -22 5 -40 10
-40 6 0 10 18 10 40 0 28 4 40 14 40 19 0 33 -23 18 -28 -17 -5 -15 -22 3 -22
9 0 15 9 15 25 0 14 5 25 10 25 6 0 10 -18 10 -40 0 -22 5 -40 10 -40 6 0 10
18 10 40 0 39 1 40 33 39 29 0 30 -1 10 -9 -37 -15 -29 -57 10 -51 4 0 7 -4 7
-9 0 -6 4 -10 9 -10 5 0 7 8 5 18 -6 22 11 47 25 37 9 -5 9 -11 -1 -23 -11
-13 -11 -14 2 -10 25 8 18 41 -10 49 -21 6 -20 7 13 8 37 1 37 1 39 -41 l1
-43 6 45 c5 36 3 49 -13 68 -25 28 -66 29 -73 2 -7 -26 -43 -26 -85 0 -43 26
-63 25 -83 -2 l-16 -23 -19 23 c-10 12 -26 22 -37 21 -15 0 -14 -2 5 -9 39
-16 24 -30 -33 -30 -49 0 -57 3 -67 25 -6 14 -18 25 -27 25 -12 0 -11 -3 5
-16z m255 -14 c5 0 9 -4 9 -10 0 -5 -13 -10 -30 -10 -29 0 -38 9 -23 24 4 3
13 4 21 1 7 -3 18 -5 23 -5z m153 4 c26 -10 18 -24 -14 -24 -29 0 -38 9 -23
23 8 9 17 9 37 1z m-434 -55 c0 -24 -23 -21 -28 4 -2 10 3 17 12 17 10 0 16
-9 16 -21z m140 -3 c0 -28 -24 -51 -41 -40 -9 5 -7 10 7 15 17 7 17 8 2 8 -22
1 -24 21 -3 21 8 0 15 5 15 10 0 6 5 10 10 10 6 0 10 -11 10 -24z m240 -17 c0
-5 -7 -9 -15 -9 -15 0 -20 12 -9 23 8 8 24 -1 24 -14z"/>
<path d="M563 350 c-5 -18 -14 -20 -102 -20 -59 0 -91 -4 -82 -9 8 -5 11 -16
8 -25 -10 -25 -27 -19 -27 9 0 18 -5 25 -20 25 -13 0 -20 -6 -19 -17 0 -11 3
-13 6 -5 10 25 24 11 18 -18 -6 -29 -5 -30 18 -25 19 5 26 2 30 -12 3 -10 5 1
6 25 1 31 5 42 17 42 13 0 15 -8 12 -40 -2 -22 0 -40 4 -40 5 0 8 18 8 40 0
36 3 40 25 40 16 0 25 -6 25 -15 0 -8 -7 -15 -15 -15 -18 0 -19 -9 -1 -32 18
-24 29 -23 16 2 -7 14 -7 20 0 20 5 0 10 9 10 20 0 16 7 20 35 20 19 0 35 -4
35 -10 0 -5 -11 -10 -25 -10 -20 0 -25 -5 -25 -24 0 -14 4 -28 10 -31 6 -4 9
3 7 17 -3 35 30 36 36 1 3 -20 4 -16 6 15 1 29 5 42 15 42 10 0 16 -14 19 -42
l4 -43 1 43 c2 35 5 42 22 42 21 0 27 -15 10 -25 -15 -9 8 -35 30 -35 10 0 20
-6 23 -12 2 -7 6 8 8 35 l4 47 -45 0 c-34 0 -48 5 -58 20 -7 11 -19 20 -28 20
-9 0 -18 -9 -21 -20z m37 -5 c0 -8 -4 -15 -10 -15 -5 0 -10 7 -10 15 0 8 5 15
10 15 6 0 10 -7 10 -15z m100 -50 c0 -18 -5 -25 -20 -25 -11 0 -20 5 -20 10 0
6 5 10 10 10 6 0 10 7 10 15 0 8 5 15 10 15 6 0 10 -11 10 -25z"/>
<path d="M1348 319 c24 -9 22 -29 -4 -29 -12 0 -12 -4 2 -25 9 -14 21 -25 26
-25 6 0 5 7 -2 15 -7 9 -11 17 -8 20 9 9 47 -8 51 -24 3 -9 5 3 6 27 1 38 3
42 26 42 16 0 25 -6 25 -15 0 -8 -7 -15 -15 -15 -21 0 -19 -13 5 -35 22 -20
28 -8 8 14 -11 12 -9 13 7 7 11 -4 35 -10 53 -13 17 -3 32 -10 32 -14 0 -5 5
-9 10 -9 6 0 10 18 10 40 0 22 5 40 10 40 6 0 10 -18 10 -40 0 -22 5 -40 10
-40 6 0 10 18 10 40 0 39 1 40 36 40 39 0 44 -23 6 -28 -12 -2 -22 -8 -22 -13
0 -5 12 -6 27 -3 23 6 25 4 20 -15 -3 -11 -2 -21 3 -21 4 0 10 20 12 45 l3 45
-72 0 -73 0 0 -30 c0 -25 -4 -30 -22 -30 -21 1 -22 2 -5 14 23 18 22 46 -2 46
-23 0 -36 -16 -21 -25 5 -3 10 -1 10 4 0 6 5 11 11 11 8 0 8 -5 -1 -15 -7 -8
-21 -15 -32 -15 -15 0 -19 5 -15 20 5 19 0 20 -76 19 -61 0 -76 -3 -59 -10z
m62 -14 c0 -8 -7 -15 -15 -15 -8 0 -15 7 -15 15 0 8 7 15 15 15 8 0 15 -7 15
-15z"/>
<path d="M1757 324 c-7 -7 2 -55 12 -65 3 -4 18 -9 34 -13 26 -6 27 -5 27 34
0 22 5 40 10 40 6 0 10 -18 10 -40 0 -22 5 -40 10 -40 6 0 10 18 10 40 0 36 3
40 25 40 16 0 25 -6 25 -15 0 -8 -7 -15 -15 -15 -8 0 -15 -3 -15 -6 0 -13 22
-44 32 -44 6 0 5 6 -3 17 -11 13 -11 17 -1 20 6 3 12 13 12 24 0 15 7 19 33
18 29 0 30 -1 10 -9 -37 -15 -29 -57 10 -51 4 0 7 -4 7 -9 0 -6 5 -10 10 -10
6 0 10 18 10 40 0 22 5 40 10 40 6 0 10 -18 10 -40 0 -22 5 -40 10 -40 6 0 10
18 10 40 0 39 1 40 33 39 24 -1 26 -3 9 -6 -30 -6 -25 -35 8 -44 21 -5 22 -7
8 -14 -9 -4 -23 -3 -30 1 -10 5 -10 4 -2 -5 16 -17 48 -10 52 12 2 12 -3 17
-17 17 -12 0 -21 5 -21 10 0 6 9 10 19 10 10 0 21 7 25 15 5 13 -17 15 -159
15 l-165 0 0 -29 c0 -33 -16 -49 -33 -32 -8 8 -6 11 9 11 18 1 18 1 2 11 -22
12 -24 33 -3 25 8 -3 15 -1 15 4 0 11 -33 14 -43 4z m233 -39 c0 -8 -7 -15
-15 -15 -16 0 -20 12 -8 23 11 12 23 8 23 -8z"/>
<path d="M1083 133 c-15 -6 -17 -79 -3 -88 6 -3 11 4 11 17 1 13 3 35 5 51 1
15 2 27 1 26 -1 0 -8 -3 -14 -6z"/>
<path d="M20 85 c0 -25 5 -45 10 -45 6 0 10 20 10 45 0 25 -4 45 -10 45 -5 0
-10 -20 -10 -45z"/>
<path d="M179 113 c-1 -10 -1 -25 0 -35 1 -9 -3 -19 -9 -23 -16 -10 -24 23
-10 40 7 8 8 15 2 15 -5 0 -15 -7 -23 -16 -18 -22 0 -48 35 -51 24 -2 26 1 26
43 0 41 -19 65 -21 27z"/>
<path d="M443 85 c0 -27 2 -38 4 -22 2 15 2 37 0 50 -2 12 -4 0 -4 -28z"/>
<path d="M1153 123 c12 -3 17 -15 17 -44 0 -21 5 -39 10 -39 6 0 10 18 10 39
0 29 5 41 18 44 9 3 -3 5 -28 5 -25 0 -37 -2 -27 -5z"/>
<path d="M1360 84 c0 -27 4 -43 10 -39 6 3 10 24 10 46 0 21 -4 39 -10 39 -5
0 -10 -21 -10 -46z"/>
<path d="M1590 91 c0 -22 5 -43 10 -46 6 -4 10 12 10 39 0 25 -4 46 -10 46 -5
0 -10 -18 -10 -39z"/>
<path d="M1890 90 c0 -28 5 -43 16 -47 23 -9 64 14 64 36 0 38 -11 51 -46 51
-33 0 -34 -1 -34 -40z m55 0 c0 -16 -6 -26 -17 -28 -14 -3 -18 3 -18 28 0 25
4 31 18 28 11 -2 17 -12 17 -28z"/>
<path d="M1991 85 c1 -43 2 -46 9 -22 5 16 5 38 0 50 -7 17 -9 10 -9 -28z"/>
<path d="M2419 113 c-1 -10 -1 -25 0 -35 1 -9 -3 -19 -9 -23 -16 -10 -24 23
-10 40 7 8 8 15 2 15 -5 0 -15 -7 -23 -16 -18 -22 0 -48 35 -51 24 -2 26 1 26
43 0 41 -19 65 -21 27z"/>
<path d="M618 115 c-8 -9 6 -68 18 -72 7 -2 10 11 10 33 -2 35 -14 52 -28 39z"/>
<path d="M706 112 c-7 -12 8 -65 21 -69 6 -2 9 11 8 34 -2 36 -17 54 -29 35z"/>
<path d="M836 112 c-7 -12 8 -65 21 -69 6 -2 9 11 8 34 -2 36 -17 54 -29 35z"/>
<path d="M61 70 l1 -35 7 30 c3 17 11 30 16 30 5 0 12 -13 15 -30 4 -21 8 -26
14 -17 4 7 5 24 2 37 -5 19 -12 24 -31 23 -22 -2 -25 -7 -24 -38z"/>
<path d="M223 75 c0 -22 2 -30 4 -17 2 12 2 30 0 40 -3 9 -5 -1 -4 -23z"/>
<path d="M255 99 c-5 -8 -1 -9 14 -4 12 4 21 2 21 -4 0 -6 -9 -11 -21 -11 -29
0 -21 -35 9 -36 20 -1 23 3 20 30 -3 32 -30 48 -43 25z m35 -33 c0 -3 -4 -8
-10 -11 -5 -3 -10 -1 -10 4 0 6 5 11 10 11 6 0 10 -2 10 -4z"/>
<path d="M320 74 c0 -19 5 -34 10 -34 6 0 10 11 10 24 0 14 5 28 10 31 6 3 10
-5 10 -19 0 -14 5 -28 11 -31 7 -5 9 4 7 26 -3 29 -7 34 -30 36 -26 2 -28 -1
-28 -33z"/>
<path d="M475 102 c-9 -9 -6 -50 4 -57 5 -3 11 6 13 20 4 36 21 36 30 0 6 -29
6 -29 5 5 -2 29 -6 35 -24 36 -12 1 -25 -1 -28 -4z"/>
<path d="M554 98 c-4 -6 0 -16 9 -23 22 -16 22 -26 0 -18 -14 5 -16 3 -6 -7 6
-7 19 -10 27 -7 20 8 21 37 1 37 -8 0 -15 4 -15 10 0 5 7 6 17 3 11 -4 14 -3
9 5 -9 15 -33 15 -42 0z"/>
<path d="M670 75 c0 -22 4 -34 10 -30 6 3 10 17 10 30 0 13 -4 27 -10 30 -6 4
-10 -8 -10 -30z"/>
<path d="M763 80 c2 -30 5 -35 27 -35 27 0 37 23 24 53 -6 13 -8 11 -13 -13
-3 -16 -11 -30 -16 -30 -5 0 -13 14 -17 30 -6 29 -6 29 -5 -5z"/>
<path d="M890 96 c-24 -30 17 -73 43 -46 9 10 7 11 -10 5 -14 -4 -23 -2 -23 4
0 6 9 11 21 11 14 0 19 5 17 17 -4 23 -31 28 -48 9z m30 -6 c0 -5 -5 -10 -11
-10 -5 0 -7 5 -4 10 3 6 8 10 11 10 2 0 4 -4 4 -10z"/>
<path d="M1000 95 c-15 -18 -7 -43 16 -52 24 -9 46 24 33 48 -12 23 -32 24
-49 4z m37 -29 c-4 -9 -11 -16 -17 -16 -11 0 -14 33 -3 44 11 10 26 -11 20
-28z"/>
<path d="M1227 103 c-4 -3 -7 -17 -7 -30 0 -28 26 -41 43 -23 10 10 8 12 -5 7
-10 -3 -20 -2 -23 3 -4 6 5 10 20 10 23 0 24 2 15 20 -11 20 -31 26 -43 13z
m28 -13 c3 -5 -1 -10 -10 -10 -9 0 -13 5 -10 10 3 6 8 10 10 10 2 0 7 -4 10
-10z"/>
<path d="M1302 101 c-21 -13 -11 -56 12 -56 11 0 22 7 24 15 5 13 3 13 -11 1
-15 -12 -17 -11 -17 12 0 21 4 25 17 20 11 -4 14 -3 9 5 -8 14 -16 15 -34 3z"/>
<path d="M1393 96 c4 -10 7 -26 7 -37 0 -10 5 -19 11 -19 15 0 6 63 -10 68
-10 3 -12 0 -8 -12z"/>
<path d="M1441 70 l1 -35 7 30 c3 17 11 30 16 30 5 0 12 -13 15 -30 4 -21 8
-26 14 -17 4 7 5 24 2 37 -5 19 -12 24 -31 23 -22 -2 -25 -7 -24 -38z"/>
<path d="M1520 96 c-27 -33 18 -72 48 -42 13 13 14 20 6 34 -15 23 -38 26 -54
8z m36 -32 c-5 -13 -10 -14 -18 -6 -6 6 -8 18 -4 28 5 13 10 14 18 6 6 -6 8
-18 4 -28z"/>
<path d="M1642 101 c-8 -4 -12 -19 -10 -32 4 -34 52 -34 56 0 5 32 -20 49 -46
32z m28 -26 c0 -14 -4 -25 -9 -25 -12 0 -19 21 -13 38 8 21 22 13 22 -13z"/>
<path d="M1715 102 c-3 -3 -5 -16 -5 -29 0 -21 10 -28 33 -24 4 0 7 -4 7 -10
0 -6 -9 -9 -20 -6 -11 3 -20 1 -20 -5 0 -5 12 -8 28 -6 24 3 27 8 30 44 3 38
1 42 -22 42 -14 0 -28 -3 -31 -6z m35 -28 c0 -8 -7 -14 -15 -14 -15 0 -21 21
-9 33 10 9 24 -2 24 -19z"/>
<path d="M1794 65 c6 -25 13 -45 17 -45 6 0 29 70 29 86 -1 5 -7 -2 -14 -15
l-14 -24 -6 21 c-13 41 -22 22 -12 -23z"/>
<path d="M2023 97 c4 -10 7 -27 7 -38 0 -10 5 -19 10 -19 16 0 11 47 -7 61
-15 12 -16 12 -10 -4z"/>
<path d="M2075 101 c-3 -7 0 -8 9 -5 9 3 16 2 16 -4 0 -5 -9 -12 -21 -15 -22
-6 -22 -28 -1 -35 7 -2 10 2 6 12 -8 21 5 20 23 -1 12 -16 13 -14 11 17 -3 35
-29 53 -43 31z"/>
<path d="M2141 71 c1 -21 3 -28 6 -16 3 11 9 24 14 30 13 13 11 22 -6 22 -11
0 -15 -10 -14 -36z"/>
<path d="M2190 94 c0 -11 6 -29 14 -40 14 -18 15 -18 25 6 l10 25 7 -22 c9
-30 22 -29 35 4 13 34 5 56 -9 23 l-11 -25 -7 23 c-8 28 -21 28 -30 0 l-6 -21
-14 24 c-12 22 -13 22 -14 3z"/>
<path d="M2310 101 c0 -6 7 -8 15 -5 8 4 15 2 15 -4 0 -5 -9 -12 -21 -15 -29
-8 -18 -32 15 -32 24 -1 27 2 24 30 -2 22 -9 31 -25 33 -13 2 -23 -1 -23 -7z
m30 -35 c0 -3 -4 -8 -10 -11 -5 -3 -10 -1 -10 4 0 6 5 11 10 11 6 0 10 -2 10
-4z"/>
</g>
</svg>
